<svg id="Capa_1" data-name="Capa 1" xmlns="http://www.w3.org/2000/svg" viewBox="0 0 87.08 87.08"><defs><style>.cls-1{fill:#b61917;}.cls-2{fill:#fff;}</style></defs><rect class="cls-1" width="87.08" height="87.08" rx="19.33"/><path class="cls-2" d="M69.61,23.81a11.06,11.06,0,0,0-6.34-6.35,18.33,18.33,0,0,0-6.22-1.15c-3.52-.16-4.58-.2-13.51-.2s-10,0-13.52.2a18.25,18.25,0,0,0-6.21,1.15A10.27,10.27,0,0,0,20,20a10.33,10.33,0,0,0-2.51,3.85A18.77,18.77,0,0,0,16.31,30c-.16,3.53-.19,4.58-.19,13.52s0,10,.19,13.52a18.77,18.77,0,0,0,1.15,6.21,11.19,11.19,0,0,0,6.35,6.35A18.51,18.51,0,0,0,30,70.77c3.53.16,4.59.19,13.52.19s10,0,13.51-.19a18.58,18.58,0,0,0,6.22-1.15,10.37,10.37,0,0,0,3.84-2.51,10.27,10.27,0,0,0,2.5-3.84,18.51,18.51,0,0,0,1.15-6.21c.17-3.53.2-4.59.2-13.52s0-10-.2-13.52A18.51,18.51,0,0,0,69.61,23.81ZM43.54,60.72A17.18,17.18,0,1,1,60.71,43.54,17.18,17.18,0,0,1,43.54,60.72Zm17.85-31a4,4,0,1,1,4-4A4,4,0,0,1,61.39,29.69Z"/><path class="cls-2" d="M43.54,32.39A11.15,11.15,0,1,0,54.69,43.54,11.15,11.15,0,0,0,43.54,32.39Z"/></svg>