<svg id="Capa_1" data-name="Capa 1" xmlns="http://www.w3.org/2000/svg" viewBox="0 0 131.76 94.73"><defs><style>.cls-1{fill:#b61917;}.cls-2{fill:#fff;}</style></defs><polygon class="cls-1" points="131.76 94.73 0 94.73 0 0 100.62 0 131.76 94.73"/><path class="cls-2" d="M22.41,39.78c.1-3.67,1.31-6.6,4.11-8.75.91-.7,1.83-1.39,2.77-2.06a2.32,2.32,0,0,1,3.29.07,17.09,17.09,0,0,1,1.68,1.51Q36.6,33,38.91,35.41a2.91,2.91,0,0,1,.76,3.24,3.5,3.5,0,0,1-.75,1.08c-1.31,1.34-2.6,2.7-4,4A2,2,0,0,0,34.35,46a14.26,14.26,0,0,0,1.25,2.86A40.05,40.05,0,0,0,42,56.52,44.1,44.1,0,0,0,48.48,62a11,11,0,0,0,3.68,1.78,2.17,2.17,0,0,0,2.25-.64c1.29-1.36,2.65-2.65,4-4A2.84,2.84,0,0,1,62.48,59c1.27,1.13,2.5,2.33,3.73,3.52.81.77,1.6,1.57,2.37,2.38a7.34,7.34,0,0,1,.9,1.25,1.81,1.81,0,0,1,.08,2,19.28,19.28,0,0,1-4.49,5.47,10.88,10.88,0,0,1-8.21,2,23,23,0,0,1-9.26-3.78,67.68,67.68,0,0,1-10.93-9A81.26,81.26,0,0,1,28.05,53a30.79,30.79,0,0,1-4.85-8.94,17.29,17.29,0,0,1-.58-2.36C22.49,41,22.46,40.29,22.41,39.78Z"/><path class="cls-2" d="M79.1,46.42A9.17,9.17,0,0,1,79,47.91a2.64,2.64,0,0,1-2.86,2,2.59,2.59,0,0,1-2.37-2.4,27,27,0,0,0-.88-6.07c-2.63-9-8.55-14.51-17.67-16.57a34.18,34.18,0,0,0-4.42-.52,2.67,2.67,0,0,1-2.63-2.8A2.64,2.64,0,0,1,51,19c12.63.33,23.24,8.16,26.84,20.12A33.14,33.14,0,0,1,79.1,46.42Z"/><path class="cls-2" d="M50.79,27.28a21.21,21.21,0,0,1,15.68,8.37,21.43,21.43,0,0,1,4.36,11.91,2.67,2.67,0,0,1-2.42,2.91A2.63,2.63,0,0,1,65.51,48a17.16,17.16,0,0,0-2-7A15.62,15.62,0,0,0,52.1,32.86c-.66-.13-1.34-.17-2-.25a2.65,2.65,0,0,1-2.44-2.93C47.75,28.3,49,27.24,50.79,27.28Z"/><path class="cls-2" d="M49.79,35.56a13.74,13.74,0,0,1,5,1.48,14.07,14.07,0,0,1,7.52,9.89,3.78,3.78,0,0,1-.06,2.55A2.72,2.72,0,0,1,59.5,51a2.66,2.66,0,0,1-2.28-2.25,8.94,8.94,0,0,0-7.75-7.8,2.68,2.68,0,0,1-.32-5.26C49.36,35.6,49.59,35.59,49.79,35.56Z"/></svg>