<svg id="Capa_1" data-name="Capa 1" xmlns="http://www.w3.org/2000/svg" viewBox="0 0 131.76 94.73"><defs><style>.cls-1{fill:#b61917;}.cls-2{fill:#fff;}</style></defs><polygon class="cls-1" points="131.76 94.73 0 94.73 0 0 100.62 0 131.76 94.73"/><path class="cls-2" d="M67.66,35.29a16,16,0,0,1-2.5,8.89Q58.59,54.74,52,65.29c-.83,1.33-1.59,1.32-2.42,0-4.41-7.06-8.85-14.11-13.22-21.19A16.92,16.92,0,1,1,67.65,33.6,15.85,15.85,0,0,1,67.66,35.29Zm-8,.05a8.91,8.91,0,1,0-9,8.84A8.85,8.85,0,0,0,59.7,35.34Z"/><path class="cls-2" d="M50.7,76.36c-6.57-.08-13.09-.59-19.34-2.77A19.34,19.34,0,0,1,26.23,71c-3.06-2.24-3-5.42,0-7.78a20.41,20.41,0,0,1,8-3.48c1.58-.4,3.18-.69,4.78-1a1.3,1.3,0,0,1,1.63,1.13c.15.91-.19,1.38-1.12,1.61-2.67.67-5.36,1.25-8,2.07a13.46,13.46,0,0,0-3.7,2c-1.41,1-1.36,2.13,0,3.23a16.38,16.38,0,0,0,5.92,2.72,54.48,54.48,0,0,0,13.42,2,63.91,63.91,0,0,0,19.2-1.67,31.47,31.47,0,0,0,6.45-2.47c2.64-1.38,2.57-3,0-4.52a27.88,27.88,0,0,0-8.93-3c-.61-.13-1.23-.22-1.84-.35-.9-.2-1.24-.68-1.11-1.53a1.39,1.39,0,0,1,1.53-1.22c4.23.72,8.44,1.55,12.13,3.92a5.71,5.71,0,0,1,2.89,3.76,4.43,4.43,0,0,1-1.62,4.18A16.65,16.65,0,0,1,69.24,74,53.11,53.11,0,0,1,57,76.08C54.89,76.21,52.79,76.27,50.7,76.36Z"/><path class="cls-2" d="M50.79,40.21a5,5,0,1,1,5.05-5A5,5,0,0,1,50.79,40.21Z"/></svg>