<svg id="Capa_1" data-name="Capa 1" xmlns="http://www.w3.org/2000/svg" viewBox="0 0 131.76 94.73"><defs><style>.cls-1{fill:#b61917;}.cls-2{fill:#fff;}</style></defs><polygon class="cls-1" points="131.76 94.73 0 94.73 0 0 100.62 0 131.76 94.73"/><path class="cls-2" d="M21.63,25.83h58l.27.35c-.59.5-1.21,1-1.76,1.5Q65.69,39.89,53.23,52.13c-2,2-2.81,2-4.86,0l-25.46-25C22.54,26.81,22.19,26.42,21.63,25.83Z"/><path class="cls-2" d="M80.12,68.9H21.65L41.14,50.19c1.3,1.42,3,3.43,4.86,5.28,3,3,6.51,3.06,9.52.05,1.86-1.86,3.54-3.91,5-5.58Z"/><path class="cls-2" d="M18.52,65.24V28.59L37.31,47Z"/><path class="cls-2" d="M83,28.45V65.26L64.88,47.65Z"/></svg>