<svg id="Capa_1" data-name="Capa 1" xmlns="http://www.w3.org/2000/svg" viewBox="0 0 255.46 210.57"><defs><style>.cls-1{fill:#1d1d1b;}.cls-2{fill:#b61917;}.cls-3{fill:#6d6d6d;}.cls-4{fill:#fff;}</style></defs><path d="M130.83,155l46.34-68.78c16.35-24.27,11.06-57.27-12.38-74.8C156.22,5,145.14.62,130.83.52c-.89,0-1.76,0-2.62,0C84.73,1.8,59.94,50.81,84.41,86.77Z"/><path class="cls-1" d="M17.44,200.6a14.37,14.37,0,0,0,3.45-.35,6.36,6.36,0,0,0,2.19-.95,3.17,3.17,0,0,0,1.14-1.43,5.11,5.11,0,0,0,.32-1.84,4.26,4.26,0,0,0-2-3.58,29.14,29.14,0,0,0-7-3.07q-2.16-.76-4.31-1.74a15.8,15.8,0,0,1-3.87-2.48,11.77,11.77,0,0,1-2.79-3.61,11.28,11.28,0,0,1-1.08-5.16,12.84,12.84,0,0,1,1.14-5.49,11.7,11.7,0,0,1,3.24-4.15,14.68,14.68,0,0,1,5.07-2.63,22.8,22.8,0,0,1,6.72-.92,27.45,27.45,0,0,1,7.66,1,27.94,27.94,0,0,1,5.33,2.09L29.8,174a28.09,28.09,0,0,0-4.09-1.68,17.9,17.9,0,0,0-5.42-.73,10,10,0,0,0-5.1,1,3.32,3.32,0,0,0-1.56,3,3.47,3.47,0,0,0,.57,2,5.47,5.47,0,0,0,1.62,1.49,13.89,13.89,0,0,0,2.41,1.21c.91.36,1.91.73,3,1.11,2.28.84,4.27,1.68,6,2.5a16,16,0,0,1,4.21,2.88,10.48,10.48,0,0,1,2.51,3.87,15.51,15.51,0,0,1,.82,5.39,11.45,11.45,0,0,1-4.31,9.54q-4.3,3.39-13,3.39a36.22,36.22,0,0,1-5.26-.35A33.23,33.23,0,0,1,8,207.82a22.76,22.76,0,0,1-5.29-2.15l2.79-7.86a24.82,24.82,0,0,0,4.85,1.93A25.15,25.15,0,0,0,17.44,200.6Z"/><path class="cls-1" d="M68.84,164.22h9.89v43.92H68.84V189.51H52.23v18.63H42.35V164.22h9.88V181H68.84Z"/><path class="cls-1" d="M130.7,186.15a27.06,27.06,0,0,1-1.68,9.92,20.43,20.43,0,0,1-4.59,7.16,19,19,0,0,1-6.94,4.34,25.3,25.3,0,0,1-8.65,1.46,24.61,24.61,0,0,1-8.5-1.46,19.58,19.58,0,0,1-7-4.34,20.22,20.22,0,0,1-4.69-7.16A26.63,26.63,0,0,1,87,186.15a25.79,25.79,0,0,1,1.77-9.92,21.21,21.21,0,0,1,4.79-7.2,19.72,19.72,0,0,1,7-4.37,24,24,0,0,1,8.34-1.46,24.59,24.59,0,0,1,8.49,1.46,19.38,19.38,0,0,1,7,4.37,20.57,20.57,0,0,1,4.69,7.2A26.6,26.6,0,0,1,130.7,186.15Zm-33.53,0A19.9,19.9,0,0,0,98,192a13.11,13.11,0,0,0,2.28,4.47,10,10,0,0,0,3.64,2.88,12.54,12.54,0,0,0,9.86,0,10,10,0,0,0,3.67-2.88,13.3,13.3,0,0,0,2.29-4.47,20.25,20.25,0,0,0,.79-5.83,20.63,20.63,0,0,0-.79-5.87,13.27,13.27,0,0,0-2.29-4.5,10.06,10.06,0,0,0-3.67-2.88,11.5,11.5,0,0,0-4.91-1,11.18,11.18,0,0,0-5,1,10.35,10.35,0,0,0-3.64,2.92,12.9,12.9,0,0,0-2.28,4.5A19.93,19.93,0,0,0,97.17,186.15Z"/><polygon class="cls-2" points="137.07 210.05 150.78 210.05 150.78 191.92 168.15 191.92 168.15 179.8 150.78 179.8 150.78 174.43 170.3 174.43 170.3 162.31 137.07 162.31 137.07 210.05"/><polygon class="cls-2" points="187.16 191.16 204.72 191.16 204.72 179.23 187.16 179.23 187.16 174.43 206.94 174.43 206.94 162.31 173.45 162.31 173.45 210.05 208.4 210.05 208.4 197.93 187.16 197.93 187.16 191.16"/><path class="cls-2" d="M251.44,207.32c-.77-1.63-1.62-3.31-2.51-5s-1.85-3.35-2.82-4.92-1.94-3.07-2.94-4.52c-.48-.7-.95-1.37-1.42-2a14.82,14.82,0,0,0,4.71-4.09,14.2,14.2,0,0,0,2.5-8.64c0-5.6-2.06-9.81-6.11-12.52-3.81-2.55-9.26-3.84-16.21-3.84-1.84,0-4,.09-6.32.26a58.42,58.42,0,0,0-6.91.91l-1.55.31v46.77h13.71V194h2.06c.63.78,1.25,1.64,1.88,2.55.84,1.23,1.69,2.55,2.53,3.9s1.69,2.78,2.5,4.23l2.45,4.38.55,1h15.19Zm-16.5-29.22a3.17,3.17,0,0,1-1.46,3.1c-.9.52-2.84,1.13-7,1.13h-.88V174.1c.49,0,1,0,1.64,0a13.46,13.46,0,0,1,6.26,1.12A3,3,0,0,1,234.94,178.1Z"/><path class="cls-3" d="M184.65,60c-.22-.18-.33-.29-.46-.38l-16.3-10.45L130.83,129.2,94.3,49.14c-5.84,3.8-11.4,7.69-17.2,11.52l12.26,3.08-9.15,9.11c12.06,18.1,38.45,57.2,50.62,75.45C143,130,169.58,90.2,181.77,71.92l-9-9Z"/><path class="cls-4" d="M152.48,54.52c0,.67,0,1.34,0,2v.31c0,2.21,0,4.42,0,6.64a5.8,5.8,0,0,1-4.63,5.84,6.36,6.36,0,0,1-1.21.12,5.38,5.38,0,0,1-2.64-.68l-7.47-4.19-2.21-1.25-.17-.1a6.11,6.11,0,0,1-6.62,0,2.66,2.66,0,0,1-.33.21l-2.7,1.52-6.65,3.74a6,6,0,0,1-5.12.33,5.68,5.68,0,0,1-3.31-3.74,6,6,0,0,1-.22-1.69c0-3.57,0-6.5,0-9.22a78.84,78.84,0,0,1-12.11-5.2l33.51,71.93,34-71.93A55.94,55.94,0,0,1,152.48,54.52Z"/><path class="cls-2" d="M126.39,54.6a5.66,5.66,0,0,0,0,6.77l-.25.16c-3.11,1.75-6.22,3.51-9.34,5.25a3.6,3.6,0,0,1-5.31-2.12,4,4,0,0,1-.14-1.1c0-3.71,0-7.43,0-11.14a3.58,3.58,0,0,1,4.11-3.68,3.31,3.31,0,0,1,1.22.4c3.2,1.77,6.38,3.58,9.57,5.37Z"/><path class="cls-2" d="M135.33,61.37c1.53-2.58,1.53-3.94,0-6.81l3-1.68c2.22-1.25,4.44-2.52,6.68-3.74a3.58,3.58,0,0,1,5.18,2.18,4.24,4.24,0,0,1,.14,1.18c0,3.66,0,7.33,0,11a3.65,3.65,0,0,1-2.9,3.72,3.42,3.42,0,0,1-2.39-.33c-3.22-1.8-6.44-3.62-9.66-5.43C135.38,61.44,135.37,61.41,135.33,61.37Z"/><path class="cls-2" d="M134.92,58a4.06,4.06,0,0,1-4,4.05,4.11,4.11,0,0,1-4.06-4.09,4.06,4.06,0,0,1,4.08-4A4,4,0,0,1,134.92,58Z"/><circle class="cls-3" cx="130.85" cy="69.81" r="2.48"/><circle class="cls-3" cx="130.85" cy="82.46" r="2.48"/><circle class="cls-3" cx="130.85" cy="95.11" r="2.48"/><circle class="cls-3" cx="130.85" cy="107.76" r="2.48"/></svg>