<svg id="Capa_1" data-name="Capa 1" xmlns="http://www.w3.org/2000/svg" viewBox="0 0 87.08 87.08"><defs><style>.cls-1{fill:#b61917;}.cls-2{fill:#fff;}</style></defs><rect class="cls-1" width="87.08" height="87.08" rx="19.33"/><path class="cls-2" d="M43.55,17.72A25.82,25.82,0,0,0,21.68,57.26l.61,1-2.61,9.52,9.77-2.56.94.56a25.77,25.77,0,0,0,13.14,3.59h0a25.82,25.82,0,0,0,0-51.63Zm15.18,36.9c-.65,1.81-3.75,3.47-5.24,3.69A10.66,10.66,0,0,1,48.6,58a45.38,45.38,0,0,1-4.42-1.63C36.4,53,31.32,45.17,30.93,44.65s-3.17-4.2-3.17-8a8.68,8.68,0,0,1,2.71-6.47,2.87,2.87,0,0,1,2.08-1c.51,0,1,0,1.48,0s1.12-.18,1.75,1.34,2.2,5.37,2.39,5.75a1.44,1.44,0,0,1,.06,1.36,4.9,4.9,0,0,1-.77,1.3c-.39.45-.82,1-1.17,1.36s-.79.81-.34,1.58a23.82,23.82,0,0,0,4.32,5.38,20.84,20.84,0,0,0,6.24,3.84c.78.39,1.23.33,1.68-.19s1.94-2.26,2.46-3,1-.65,1.74-.39,4.53,2.14,5.3,2.53,1.3.58,1.49.9A6.39,6.39,0,0,1,58.73,54.62Z"/></svg>