<svg id="Capa_5" data-name="Capa 5" xmlns="http://www.w3.org/2000/svg" viewBox="0 0 384 384"><defs><style>.cls-1{fill:#1d1d1b;}.cls-2{fill:#6d6d6d;}.cls-3{fill:#fff;}</style></defs><path d="M196.56,265.22l68.26-101.31c24.09-35.75,16.28-84.36-18.24-110.18-12.61-9.43-28.94-15.89-50-16-1.3,0-2.59,0-3.86,0-64,1.85-100.56,74-64.51,127Z"/><path class="cls-1" d="M29.54,332.39a21.14,21.14,0,0,0,5.09-.51,9.35,9.35,0,0,0,3.22-1.4,4.66,4.66,0,0,0,1.68-2.1,7.52,7.52,0,0,0,.47-2.71,6.25,6.25,0,0,0-3-5.27c-2-1.41-5.41-2.91-10.27-4.53-2.11-.75-4.23-1.6-6.35-2.57a23.41,23.41,0,0,1-5.69-3.64,17.48,17.48,0,0,1-4.11-5.32A16.65,16.65,0,0,1,9,296.73a18.87,18.87,0,0,1,1.68-8.08,17.22,17.22,0,0,1,4.77-6.11,21.86,21.86,0,0,1,7.47-3.88,33.55,33.55,0,0,1,9.89-1.35A39.56,39.56,0,0,1,52,281.79l-4.2,11.48a40.8,40.8,0,0,0-6-2.47,26.28,26.28,0,0,0-8-1.07c-3.48,0-6,.48-7.51,1.44a4.89,4.89,0,0,0-2.29,4.44,5.14,5.14,0,0,0,.84,3,8.18,8.18,0,0,0,2.38,2.19,21.35,21.35,0,0,0,3.55,1.77q2,.79,4.44,1.64a94.28,94.28,0,0,1,8.77,3.69,23.31,23.31,0,0,1,6.21,4.24,15.41,15.41,0,0,1,3.69,5.7A22.85,22.85,0,0,1,55,325.76q0,9.06-6.35,14.05t-19.14,5a52,52,0,0,1-7.75-.52A49.07,49.07,0,0,1,15.68,343a34.51,34.51,0,0,1-4.58-1.58c-1.27-.56-2.34-1.09-3.22-1.59L12,328.28a36.52,36.52,0,0,0,7.14,2.85A37.13,37.13,0,0,0,29.54,332.39Z"/><path class="cls-1" d="M105.26,278.8h14.56v64.7H105.26V316.05H80.8V343.5H66.23V278.8H80.8v24.74h24.46Z"/><path class="cls-1" d="M196.38,311.11a39.79,39.79,0,0,1-2.48,14.61,30,30,0,0,1-6.77,10.55,27.77,27.77,0,0,1-10.22,6.39,37.16,37.16,0,0,1-12.74,2.15,36.22,36.22,0,0,1-12.51-2.15,28.64,28.64,0,0,1-10.27-6.39,29.92,29.92,0,0,1-6.91-10.55A39.15,39.15,0,0,1,132,311.11a38,38,0,0,1,2.61-14.61,30.94,30.94,0,0,1,7.05-10.6,29,29,0,0,1,10.27-6.44,35.3,35.3,0,0,1,12.28-2.15,36.22,36.22,0,0,1,12.51,2.15A28.52,28.52,0,0,1,187,285.9a30.5,30.5,0,0,1,6.91,10.6A39.15,39.15,0,0,1,196.38,311.11Zm-49.39,0a29.28,29.28,0,0,0,1.17,8.58,19.34,19.34,0,0,0,3.36,6.59,14.86,14.86,0,0,0,5.36,4.24,18.32,18.32,0,0,0,14.52,0,14.81,14.81,0,0,0,5.42-4.24,19.71,19.71,0,0,0,3.36-6.59,29.28,29.28,0,0,0,1.17-8.58,29.8,29.8,0,0,0-1.17-8.64,19.72,19.72,0,0,0-3.36-6.63,14.94,14.94,0,0,0-5.42-4.25,17.06,17.06,0,0,0-7.23-1.49,16.48,16.48,0,0,0-7.29,1.54,15.44,15.44,0,0,0-5.36,4.29,19.36,19.36,0,0,0-3.36,6.63A29.51,29.51,0,0,0,147,311.11Z"/><polygon class="cls-2" points="205.76 346.31 225.95 346.31 225.95 319.62 251.53 319.62 251.53 301.76 225.95 301.76 225.95 293.85 254.7 293.85 254.7 275.99 205.76 275.99 205.76 346.31"/><polygon class="cls-2" points="279.54 318.49 305.4 318.49 305.4 300.92 279.54 300.92 279.54 293.85 308.66 293.85 308.66 275.99 259.35 275.99 259.35 346.31 310.81 346.31 310.81 328.46 279.54 328.46 279.54 318.49"/><path class="cls-2" d="M374.21,342.3c-1.14-2.41-2.38-4.88-3.7-7.35s-2.72-4.94-4.15-7.26S363.5,323.17,362,321c-.71-1-1.41-2-2.1-2.94a21.75,21.75,0,0,0,6.94-6c2.44-3.31,3.68-7.59,3.68-12.73,0-8.24-3-14.45-9-18.44-5.61-3.75-13.65-5.66-23.88-5.66-2.71,0-5.84.13-9.3.38A85.09,85.09,0,0,0,318.19,277l-2.27.44v68.89h20.19V322.7h3c.91,1.15,1.84,2.41,2.76,3.76,1.23,1.82,2.49,3.75,3.73,5.74s2.49,4.1,3.68,6.23,2.43,4.33,3.61,6.45l.81,1.43h22.38ZM349.9,299.25c0,2.3-.66,3.71-2.14,4.57-1.32.76-4.19,1.67-10.36,1.67h-1.29V293.36c.72-.05,1.53-.07,2.41-.07,4.16,0,7.27.55,9.23,1.65C349.24,295.77,349.9,297.1,349.9,299.25Z"/><path class="cls-2" d="M275.83,125.26a7.79,7.79,0,0,0-.67-.56l-24-15.4L196.56,227.23,142.75,109.3c-8.6,5.61-16.78,11.34-25.32,17l18.06,4.53L122,144.22c17.77,26.67,56.64,84.26,74.56,111.14,17.93-26.9,57.07-85.57,75-112.51l-13.31-13.18Z"/><path class="cls-3" d="M228.46,117.23v3.42c0,3.26,0,6.51,0,9.77a8.54,8.54,0,0,1-6.82,8.61,9.21,9.21,0,0,1-1.79.18,7.88,7.88,0,0,1-3.88-1L205,132l-3.25-1.84a1.28,1.28,0,0,1-.25-.15,9,9,0,0,1-9.76,0,4.61,4.61,0,0,1-.49.32l-4,2.23-9.8,5.51a8.7,8.7,0,0,1-7.54.48,8.38,8.38,0,0,1-4.87-5.51,8.8,8.8,0,0,1-.33-2.48c0-5.27,0-9.58,0-13.59a113.44,113.44,0,0,1-17.83-7.66l49.35,106L246.31,109.3A81.65,81.65,0,0,1,228.46,117.23Z"/><path class="cls-2" d="M190,117.35a8.33,8.33,0,0,0,0,10c-.11.08-.23.17-.36.25-4.59,2.58-9.17,5.17-13.76,7.73a5.32,5.32,0,0,1-7.83-3.12,6,6,0,0,1-.2-1.63q0-8.2,0-16.4a5.27,5.27,0,0,1,6.05-5.42,4.94,4.94,0,0,1,1.8.58c4.71,2.62,9.4,5.27,14.09,7.91Z"/><path class="cls-2" d="M203.19,127.33c2.25-3.81,2.26-5.82,0-10l4.39-2.47c3.28-1.84,6.54-3.71,9.84-5.52a5.29,5.29,0,0,1,7.63,3.22,6.26,6.26,0,0,1,.21,1.73c0,5.4,0,10.8,0,16.2a5.38,5.38,0,0,1-4.27,5.47,5,5,0,0,1-3.51-.49c-4.75-2.65-9.5-5.33-14.24-8C203.26,127.42,203.24,127.38,203.19,127.33Z"/><path class="cls-2" d="M202.58,122.33a6,6,0,0,1-6,6,6,6,0,1,1,0-11.94A5.93,5.93,0,0,1,202.58,122.33Z"/><circle class="cls-2" cx="196.6" cy="139.75" r="3.65"/><circle class="cls-2" cx="196.6" cy="158.38" r="3.65"/><circle class="cls-2" cx="196.6" cy="177.02" r="3.65"/><circle class="cls-2" cx="196.6" cy="195.65" r="3.65"/></svg>