<svg id="Capa_5" data-name="Capa 5" xmlns="http://www.w3.org/2000/svg" viewBox="0 0 96 96"><defs><style>.cls-1{fill:#1d1d1b;}.cls-2{fill:#6d6d6d;}.cls-3{fill:#fff;}</style></defs><path d="M49.15,66.49,66.39,40.9a20.46,20.46,0,0,0-4.6-27.82A20.75,20.75,0,0,0,49.15,9h-1C32,9.5,22.78,27.73,31.88,41.11Z"/><path class="cls-1" d="M7,83.46a5.18,5.18,0,0,0,1.29-.13A2.17,2.17,0,0,0,9.06,83a1.19,1.19,0,0,0,.43-.53,1.88,1.88,0,0,0,.12-.69,1.6,1.6,0,0,0-.76-1.33,11,11,0,0,0-2.59-1.14c-.54-.19-1.07-.41-1.61-.65a5.74,5.74,0,0,1-1.43-.92,4.28,4.28,0,0,1-1-1.34,4.2,4.2,0,0,1-.4-1.93,4.83,4.83,0,0,1,.42-2,4.29,4.29,0,0,1,1.2-1.54,5.46,5.46,0,0,1,1.89-1,8.4,8.4,0,0,1,2.5-.34,10.38,10.38,0,0,1,2.85.35,10.46,10.46,0,0,1,2,.78l-1.06,2.9A10.23,10.23,0,0,0,10,73a6.59,6.59,0,0,0-2-.28,3.73,3.73,0,0,0-1.9.37,1.22,1.22,0,0,0-.58,1.12,1.33,1.33,0,0,0,.21.76,2.15,2.15,0,0,0,.6.55,6.29,6.29,0,0,0,.9.45c.34.13.71.27,1.12.41q1.28.48,2.22.93a6.2,6.2,0,0,1,1.56,1.07,4,4,0,0,1,.94,1.44,5.91,5.91,0,0,1,.3,2,4.26,4.26,0,0,1-1.6,3.55A7.75,7.75,0,0,1,7,86.6a12.92,12.92,0,0,1-3.5-.45,9.43,9.43,0,0,1-1.15-.4,9.11,9.11,0,0,1-.82-.4l1-2.93a8.87,8.87,0,0,0,4.43,1Z"/><path class="cls-1" d="M26.09,69.93h3.68V86.27H26.09V79.34H19.91v6.93H16.23V69.93h3.68v6.25h6.18Z"/><path class="cls-1" d="M49.11,78.09a10,10,0,0,1-.63,3.69,7.62,7.62,0,0,1-1.71,2.66,7,7,0,0,1-2.58,1.62A9.42,9.42,0,0,1,41,86.6a9.16,9.16,0,0,1-3.16-.54,7.24,7.24,0,0,1-2.59-1.62,7.43,7.43,0,0,1-1.75-2.66,10,10,0,0,1-.64-3.69,9.66,9.66,0,0,1,.66-3.7,7.91,7.91,0,0,1,1.78-2.67,7.43,7.43,0,0,1,2.6-1.63,8.9,8.9,0,0,1,3.1-.54,9.16,9.16,0,0,1,3.16.54,7.21,7.21,0,0,1,2.59,1.63,7.7,7.7,0,0,1,1.75,2.67A10.06,10.06,0,0,1,49.11,78.09Zm-12.48,0a7.23,7.23,0,0,0,.3,2.16,4.86,4.86,0,0,0,.84,1.67A3.83,3.83,0,0,0,39.13,83a4.29,4.29,0,0,0,1.84.38A4.34,4.34,0,0,0,42.8,83a3.66,3.66,0,0,0,1.36-1.07A4.88,4.88,0,0,0,45,80.25a7.23,7.23,0,0,0,.3-2.16A7.48,7.48,0,0,0,45,75.9a4.79,4.79,0,0,0-.85-1.67,3.66,3.66,0,0,0-1.36-1.07A4.34,4.34,0,0,0,41,72.78a4.15,4.15,0,0,0-1.84.39,4,4,0,0,0-1.36,1.08,4.91,4.91,0,0,0-.84,1.68A7.32,7.32,0,0,0,36.63,78.09Z"/><polygon class="cls-2" points="51.48 86.98 56.58 86.98 56.58 80.23 63.04 80.23 63.04 75.72 56.58 75.72 56.58 73.73 63.84 73.73 63.84 69.22 51.48 69.22 51.48 86.98"/><polygon class="cls-2" points="70.11 79.95 76.64 79.95 76.64 75.51 70.11 75.51 70.11 73.73 77.47 73.73 77.47 69.22 65.01 69.22 65.01 86.98 78.01 86.98 78.01 82.47 70.11 82.47 70.11 79.95"/><path class="cls-2" d="M94,86c-.29-.6-.61-1.23-.94-1.85s-.69-1.25-1-1.83S91.32,81.13,91,80.6c-.18-.27-.36-.51-.53-.75a5.53,5.53,0,0,0,1.75-1.52,5.29,5.29,0,0,0,.93-3.22,5.21,5.21,0,0,0-2.27-4.65,10.84,10.84,0,0,0-6-1.43c-.69,0-1.48,0-2.35.09a23.09,23.09,0,0,0-2.57.34l-.58.12V87h5.1V81h.77c.23.29.46.61.7.95s.63,1,.94,1.45.63,1,.93,1.58l.91,1.63.2.36h5.66ZM87.89,75.09a1.16,1.16,0,0,1-.55,1.15,5.31,5.31,0,0,1-2.61.43H84.4V73.6l.61,0a4.93,4.93,0,0,1,2.33.42A1.1,1.1,0,0,1,87.89,75.09Z"/><path class="cls-2" d="M69.18,31.14,69,31l-6.07-3.89L49.15,56.9,35.56,27.11c-2.17,1.42-4.24,2.86-6.4,4.29l4.57,1.14-3.41,3.39C34.81,42.67,44.63,57.22,49.15,64L68.1,35.59c-1.12-1.12-2.23-2.22-3.36-3.33Z"/><path class="cls-3" d="M57.21,29.11v3.34a2.15,2.15,0,0,1-1.72,2.17,2.3,2.3,0,0,1-.45.05,2,2,0,0,1-1-.26l-2.78-1.56-.82-.46-.06,0a2.32,2.32,0,0,1-1.23.36,2.28,2.28,0,0,1-1.24-.37l-.12.08-1,.56-2.47,1.39a2.2,2.2,0,0,1-1.9.13,2.12,2.12,0,0,1-1.24-1.39,2.47,2.47,0,0,1-.08-.63V29.05a29.61,29.61,0,0,1-4.51-1.94L49.07,53.87,61.72,27.11A20.33,20.33,0,0,1,57.21,29.11Z"/><path class="cls-2" d="M47.5,29.14a2.1,2.1,0,0,0,0,2.52l-.09.06-3.48,2a1.35,1.35,0,0,1-2-.79,1.92,1.92,0,0,1-.05-.41V28.33A1.34,1.34,0,0,1,43.44,27a1.41,1.41,0,0,1,.45.15l3.56,2Z"/><path class="cls-2" d="M50.83,31.66a2.1,2.1,0,0,0,0-2.53l1.11-.63,2.49-1.39a1.34,1.34,0,0,1,1.93.81,1.61,1.61,0,0,1,0,.44c0,1.36,0,2.73,0,4.09a1.36,1.36,0,0,1-1.08,1.39,1.23,1.23,0,0,1-.88-.13l-3.6-2S50.84,31.68,50.83,31.66Z"/><path class="cls-2" d="M50.67,30.4a1.51,1.51,0,0,1-1.5,1.51,1.51,1.51,0,1,1,0-3A1.5,1.5,0,0,1,50.67,30.4Z"/><circle class="cls-2" cx="49.16" cy="34.8" r="0.92"/><circle class="cls-2" cx="49.16" cy="39.51" r="0.92"/><circle class="cls-2" cx="49.16" cy="44.22" r="0.92"/><circle class="cls-2" cx="49.16" cy="48.92" r="0.92"/></svg>