<svg id="Capa_5" data-name="Capa 5" xmlns="http://www.w3.org/2000/svg" viewBox="0 0 128 128"><defs><style>.cls-1{fill:#1d1d1b;}.cls-2{fill:#6d6d6d;}.cls-3{fill:#fff;}</style></defs><path d="M65.52,88.37,88.23,54.65A27,27,0,0,0,82.16,18a27.33,27.33,0,0,0-16.64-5.34c-.44,0-.86,0-1.29,0-21.31.61-33.46,24.64-21.47,42.27Z"/><path class="cls-1" d="M9.93,110.72a6.75,6.75,0,0,0,1.7-.17,3.22,3.22,0,0,0,1.07-.46,1.62,1.62,0,0,0,.56-.7,2.57,2.57,0,0,0,.15-.9,2.09,2.09,0,0,0-1-1.76A14.57,14.57,0,0,0,9,105.22c-.7-.24-1.41-.53-2.11-.85A7.59,7.59,0,0,1,5,103.16a6,6,0,0,1-1.37-1.77,5.61,5.61,0,0,1-.52-2.54,6.15,6.15,0,0,1,.56-2.68,5.73,5.73,0,0,1,1.58-2,7.17,7.17,0,0,1,2.49-1.29A11.14,11.14,0,0,1,11,92.39a13.32,13.32,0,0,1,6.37,1.49L16,97.71a12.64,12.64,0,0,0-2-.83,8.64,8.64,0,0,0-2.66-.36,4.87,4.87,0,0,0-2.5.49,1.61,1.61,0,0,0-.76,1.47,1.69,1.69,0,0,0,.28,1,2.67,2.67,0,0,0,.79.73,8.11,8.11,0,0,0,1.18.59l1.48.54c1.12.42,2.09.82,2.92,1.23A7.63,7.63,0,0,1,16.78,104a5.11,5.11,0,0,1,1.23,1.9,7.56,7.56,0,0,1,.4,2.64,5.58,5.58,0,0,1-2.11,4.67q-2.12,1.66-6.37,1.67a18.3,18.3,0,0,1-2.58-.17,19.41,19.41,0,0,1-2-.42,13.15,13.15,0,0,1-1.52-.53,11,11,0,0,1-1.08-.53l1.37-3.85a11.79,11.79,0,0,0,2.38.94A12.3,12.3,0,0,0,9.93,110.72Z"/><path class="cls-1" d="M35.13,92.89H40v21.53H35.13v-9.13H27v9.13H22.14V92.89H27v8.23h8.14Z"/><path class="cls-1" d="M65.46,103.64a13.23,13.23,0,0,1-.83,4.86A10,10,0,0,1,62.38,112a9.09,9.09,0,0,1-3.4,2.13,12.3,12.3,0,0,1-4.24.72,12,12,0,0,1-4.17-.72A9.37,9.37,0,0,1,47.16,112a9.83,9.83,0,0,1-2.3-3.51,13,13,0,0,1-.84-4.86,12.62,12.62,0,0,1,.87-4.86,10.37,10.37,0,0,1,2.34-3.53,9.69,9.69,0,0,1,3.42-2.14,11.7,11.7,0,0,1,4.09-.72,11.93,11.93,0,0,1,4.16.72,9.43,9.43,0,0,1,3.42,2.14,10.15,10.15,0,0,1,2.3,3.53A13,13,0,0,1,65.46,103.64Zm-16.44,0a9.75,9.75,0,0,0,.39,2.86,6.47,6.47,0,0,0,1.12,2.19,4.89,4.89,0,0,0,1.78,1.41,6.08,6.08,0,0,0,4.83,0A4.91,4.91,0,0,0,59,108.69a6.66,6.66,0,0,0,1.12-2.19,10.1,10.1,0,0,0,.38-2.86,10.23,10.23,0,0,0-.38-2.87A6.67,6.67,0,0,0,59,98.56a4.91,4.91,0,0,0-1.81-1.41,6,6,0,0,0-4.83,0,5.05,5.05,0,0,0-1.78,1.43,6.48,6.48,0,0,0-1.12,2.21A9.75,9.75,0,0,0,49,103.64Z"/><polygon class="cls-2" points="68.58 115.36 75.3 115.36 75.3 106.47 83.81 106.47 83.81 100.53 75.3 100.53 75.3 97.9 84.87 97.9 84.87 91.95 68.58 91.95 68.58 115.36"/><polygon class="cls-2" points="93.13 106.1 101.74 106.1 101.74 100.25 93.13 100.25 93.13 97.9 102.83 97.9 102.83 91.95 86.41 91.95 86.41 115.36 103.54 115.36 103.54 109.42 93.13 109.42 93.13 106.1"/><path class="cls-2" d="M124.64,114c-.38-.8-.79-1.62-1.23-2.45s-.91-1.64-1.38-2.41-1-1.5-1.44-2.21c-.24-.35-.47-.67-.7-1a7.32,7.32,0,0,0,2.31-2,7.82,7.82,0,0,0-1.77-10.37c-1.87-1.25-4.54-1.89-7.94-1.89-.91,0-1.95,0-3.1.13a30.43,30.43,0,0,0-3.39.45l-.76.15v22.93H112V107.5h1c.31.38.62.8.92,1.25s.83,1.25,1.24,1.91.83,1.37,1.23,2.07.81,1.45,1.2,2.15l.27.48h7.45Zm-8.09-14.33a1.55,1.55,0,0,1-.71,1.52,7.16,7.16,0,0,1-3.45.56H112v-4l.81,0a6.47,6.47,0,0,1,3.06.55A1.45,1.45,0,0,1,116.55,99.69Z"/><path class="cls-2" d="M91.9,41.79c-.11-.09-.16-.15-.22-.19l-8-5.12L65.52,75.73,47.61,36.48c-2.86,1.86-5.59,3.77-8.43,5.64l6,1.51L40.7,48.1c5.92,8.87,18.85,28,24.82,37l25-37.45-4.43-4.38Z"/><path class="cls-3" d="M76.13,39.12v1.13c0,1.09,0,2.17,0,3.26a2.84,2.84,0,0,1-2.27,2.86,3,3,0,0,1-.59.06,2.58,2.58,0,0,1-1.3-.34L68.32,44l-1.08-.61-.08,0a3,3,0,0,1-1.62.47,3,3,0,0,1-1.63-.48l-.16.1-1.32.75-3.27,1.83a2.89,2.89,0,0,1-2.5.16A2.81,2.81,0,0,1,55,44.38a3.55,3.55,0,0,1-.11-.83V39A38.67,38.67,0,0,1,49,36.48L65.41,71.74,82.07,36.48A27.27,27.27,0,0,1,76.13,39.12Z"/><path class="cls-2" d="M63.34,39.15a2.77,2.77,0,0,0,0,3.32l-.12.08-4.58,2.58a1.77,1.77,0,0,1-2.6-1,2,2,0,0,1-.07-.54q0-2.73,0-5.46a1.76,1.76,0,0,1,2-1.81,1.85,1.85,0,0,1,.6.2q2.35,1.31,4.69,2.63Z"/><path class="cls-2" d="M67.72,42.48a2.77,2.77,0,0,0,0-3.34l1.46-.83c1.1-.61,2.18-1.23,3.28-1.83A1.76,1.76,0,0,1,75,37.55a2.17,2.17,0,0,1,.07.57c0,1.8,0,3.6,0,5.39a1.8,1.8,0,0,1-1.43,1.83,1.62,1.62,0,0,1-1.16-.17c-1.59-.88-3.16-1.77-4.74-2.66Z"/><path class="cls-2" d="M67.52,40.81a2,2,0,0,1-2,2,2,2,0,1,1,0-4A2,2,0,0,1,67.52,40.81Z"/><circle class="cls-2" cx="65.53" cy="46.61" r="1.21"/><circle class="cls-2" cx="65.53" cy="52.81" r="1.21"/><circle class="cls-2" cx="65.53" cy="59.01" r="1.21"/><circle class="cls-2" cx="65.53" cy="65.21" r="1.21"/></svg>