<svg id="Capa_5" data-name="Capa 5" xmlns="http://www.w3.org/2000/svg" viewBox="0 0 192 192"><defs><style>.cls-1{fill:#1d1d1b;}.cls-2{fill:#6d6d6d;}.cls-3{fill:#fff;}</style></defs><path d="M98.28,132.7,132.5,81.92a40.63,40.63,0,0,0-9.14-55.23c-6.32-4.73-14.51-8-25.08-8l-1.93,0C64.25,19.59,45.94,55.78,64,82.33Z"/><path class="cls-1" d="M14.56,166.38a10.58,10.58,0,0,0,2.55-.26,4.68,4.68,0,0,0,1.62-.7,2.46,2.46,0,0,0,.84-1A3.92,3.92,0,0,0,19.8,163a3.15,3.15,0,0,0-1.5-2.65,21.65,21.65,0,0,0-5.14-2.27c-1.06-.37-2.13-.8-3.19-1.28A11.67,11.67,0,0,1,7.12,155a8.68,8.68,0,0,1-2.06-2.67,8.32,8.32,0,0,1-.8-3.81,9.47,9.47,0,0,1,.85-4.05,8.57,8.57,0,0,1,2.38-3.06,10.93,10.93,0,0,1,3.75-1.95,16.86,16.86,0,0,1,5-.67,20.12,20.12,0,0,1,5.66.7A20.51,20.51,0,0,1,25.79,141l-2.1,5.76a20,20,0,0,0-3-1.24,13,13,0,0,0-4-.54,7.26,7.26,0,0,0-3.77.73,2.43,2.43,0,0,0-1.15,2.22,2.6,2.6,0,0,0,.42,1.5,4.16,4.16,0,0,0,1.2,1.1,10.93,10.93,0,0,0,1.78.89q1,.39,2.22.81c1.68.63,3.15,1.24,4.4,1.85a11.82,11.82,0,0,1,3.11,2.13,7.76,7.76,0,0,1,1.85,2.86,11.61,11.61,0,0,1,.61,4,8.45,8.45,0,0,1-3.18,7c-2.13,1.67-5.32,2.5-9.6,2.5a26.82,26.82,0,0,1-3.88-.25,26.44,26.44,0,0,1-3.07-.64,17.73,17.73,0,0,1-2.29-.79,17.55,17.55,0,0,1-1.62-.8l2.06-5.8a18.36,18.36,0,0,0,3.58,1.43A18.63,18.63,0,0,0,14.56,166.38Z"/><path class="cls-1" d="M52.52,139.51h7.3V172h-7.3V158.19H40.25V172H33V139.51h7.3v12.41H52.52Z"/><path class="cls-1" d="M98.19,155.71A19.83,19.83,0,0,1,97,163a15,15,0,0,1-3.39,5.29,14,14,0,0,1-5.12,3.21,18.88,18.88,0,0,1-6.39,1.07,18.27,18.27,0,0,1-6.27-1.07,14.37,14.37,0,0,1-5.15-3.21A15,15,0,0,1,67.16,163a19.62,19.62,0,0,1-1.26-7.32,19.1,19.1,0,0,1,1.31-7.33,15.67,15.67,0,0,1,3.53-5.31,14.72,14.72,0,0,1,5.15-3.23,17.62,17.62,0,0,1,6.16-1.07,18.12,18.12,0,0,1,6.27,1.07,14.45,14.45,0,0,1,5.15,3.23,15.37,15.37,0,0,1,3.46,5.31A19.71,19.71,0,0,1,98.19,155.71Zm-24.75,0A14.72,14.72,0,0,0,74,160a9.71,9.71,0,0,0,1.69,3.3,7.45,7.45,0,0,0,2.69,2.13,9.18,9.18,0,0,0,7.27,0,7.38,7.38,0,0,0,2.72-2.13,9.88,9.88,0,0,0,1.68-3.3,14.71,14.71,0,0,0,.59-4.3,15,15,0,0,0-.59-4.33,9.79,9.79,0,0,0-1.68-3.32,7.38,7.38,0,0,0-2.72-2.13,8.46,8.46,0,0,0-3.62-.75,8.16,8.16,0,0,0-3.65.77,7.61,7.61,0,0,0-2.69,2.15A9.68,9.68,0,0,0,74,151.43,14.77,14.77,0,0,0,73.44,155.71Z"/><polygon class="cls-2" points="102.9 173.36 113.02 173.36 113.02 159.97 125.84 159.97 125.84 151.02 113.02 151.02 113.02 147.06 127.43 147.06 127.43 138.1 102.9 138.1 102.9 173.36"/><polygon class="cls-2" points="139.88 159.41 152.85 159.41 152.85 150.6 139.88 150.6 139.88 147.06 154.48 147.06 154.48 138.1 129.76 138.1 129.76 173.36 155.56 173.36 155.56 164.41 139.88 164.41 139.88 159.41"/><path class="cls-2" d="M187.34,171.34c-.57-1.2-1.19-2.44-1.85-3.68s-1.37-2.48-2.08-3.64-1.44-2.26-2.17-3.33c-.36-.52-.71-1-1.05-1.48a10.92,10.92,0,0,0,3.48-3,10.53,10.53,0,0,0,1.84-6.38c0-4.13-1.52-7.24-4.51-9.25-2.81-1.88-6.84-2.83-12-2.83-1.36,0-2.93.06-4.66.19a43.7,43.7,0,0,0-5.11.68l-1.14.22v34.54h10.12V161.52h1.53c.45.58.92,1.21,1.38,1.88.62.92,1.25,1.88,1.87,2.88s1.25,2.06,1.85,3.13,1.21,2.17,1.81,3.23l.4.72H188.3Zm-12.18-21.58a2.33,2.33,0,0,1-1.08,2.29c-.66.39-2.1.84-5.19.84h-.65v-6.08c.36,0,.77,0,1.21,0a9.94,9.94,0,0,1,4.63.82A2.21,2.21,0,0,1,175.16,149.76Z"/><path class="cls-2" d="M138,62.54c-.16-.13-.25-.22-.34-.28l-12-7.72L98.29,113.66l-27-59.12C67,57.35,62.9,60.23,58.62,63.05l9.05,2.27-6.76,6.73c8.91,13.37,28.39,42.24,37.37,55.71,9-13.48,28.62-42.9,37.62-56.4l-6.67-6.61Z"/><path class="cls-3" d="M114.28,58.52v1.71c0,1.63,0,3.27,0,4.9a4.27,4.27,0,0,1-3.42,4.31,4.68,4.68,0,0,1-.9.1,3.94,3.94,0,0,1-2-.51l-5.51-3.09L100.88,65l-.12-.08a4.53,4.53,0,0,1-4.9,0l-.24.16-2,1.12L88.72,69a4.38,4.38,0,0,1-3.78.24,4.2,4.2,0,0,1-2.45-2.76,4.85,4.85,0,0,1-.16-1.25c0-2.64,0-4.8,0-6.81a57.62,57.62,0,0,1-8.93-3.84l24.73,53.12,25.1-53.12A40.73,40.73,0,0,1,114.28,58.52Z"/><path class="cls-2" d="M95,58.58a4.15,4.15,0,0,0,0,5,.81.81,0,0,1-.18.12c-2.3,1.3-4.59,2.6-6.9,3.88A2.66,2.66,0,0,1,84,66a2.84,2.84,0,0,1-.1-.82q0-4.11,0-8.22a2.65,2.65,0,0,1,3-2.72,2.57,2.57,0,0,1,.9.29l7.06,4Z"/><path class="cls-2" d="M101.61,63.58c1.13-1.91,1.13-2.91,0-5l2.2-1.24c1.65-.92,3.28-1.86,4.94-2.77a2.65,2.65,0,0,1,3.82,1.61,3.19,3.19,0,0,1,.11.87c0,2.71,0,5.42,0,8.12a2.71,2.71,0,0,1-2.14,2.75,2.49,2.49,0,0,1-1.76-.25c-2.39-1.33-4.76-2.67-7.14-4Z"/><path class="cls-2" d="M101.31,61.07a3,3,0,1,1-3-3A3,3,0,0,1,101.31,61.07Z"/><circle class="cls-2" cx="98.3" cy="69.81" r="1.83"/><circle class="cls-2" cx="98.3" cy="79.15" r="1.83"/><circle class="cls-2" cx="98.3" cy="88.49" r="1.83"/><circle class="cls-2" cx="98.3" cy="97.83" r="1.83"/></svg>