<svg id="Capa_5" data-name="Capa 5" xmlns="http://www.w3.org/2000/svg" viewBox="0 0 512 512"><defs><style>.cls-1{fill:#1d1d1b;}.cls-2{fill:#6d6d6d;}.cls-3{fill:#fff;}</style></defs><path d="M261.75,348.39l86.14-127.84c30.39-45.11,20.55-106.44-23-139C309,69.63,288.35,61.47,261.75,61.28c-1.64,0-3.26,0-4.86,0C176.08,63.67,130,154.75,175.47,221.59Z"/><path class="cls-1" d="M51,433.16a26.61,26.61,0,0,0,6.42-.65,11.82,11.82,0,0,0,4.07-1.77,5.94,5.94,0,0,0,2.12-2.65,9.51,9.51,0,0,0,.58-3.42A7.88,7.88,0,0,0,60.43,418q-3.78-2.65-13-5.72c-2.67-.94-5.35-2-8-3.24a29,29,0,0,1-7.19-4.59,21.82,21.82,0,0,1-5.18-6.71,21,21,0,0,1-2-9.61A23.85,23.85,0,0,1,27.2,378a21.86,21.86,0,0,1,6-7.71,27.46,27.46,0,0,1,9.43-4.89,42.22,42.22,0,0,1,12.48-1.71,50.82,50.82,0,0,1,14.26,1.77,51.35,51.35,0,0,1,9.89,3.88L74,383.79a51.84,51.84,0,0,0-7.6-3.12,32.94,32.94,0,0,0-10.07-1.35q-6.6,0-9.48,1.82a6.17,6.17,0,0,0-2.89,5.6A6.52,6.52,0,0,0,45,390.51a10.41,10.41,0,0,0,3,2.77,26.6,26.6,0,0,0,4.47,2.24q2.53,1,5.6,2.06,6.36,2.35,11.07,4.65A29.63,29.63,0,0,1,77,407.59a19.48,19.48,0,0,1,4.65,7.19,28.91,28.91,0,0,1,1.53,10q0,11.43-8,17.73T51,448.82a67.35,67.35,0,0,1-9.78-.64,66.12,66.12,0,0,1-7.71-1.59,44,44,0,0,1-5.78-2,41.75,41.75,0,0,1-4.06-2L28.85,428a46.08,46.08,0,0,0,9,3.6A46.84,46.84,0,0,0,51,433.16Z"/><path class="cls-1" d="M146.54,365.53h18.38v81.65H146.54V412.54H115.68v34.64H97.3V365.53h18.38v31.22h30.86Z"/><path class="cls-1" d="M261.52,406.3a50.22,50.22,0,0,1-3.12,18.43,38,38,0,0,1-8.54,13.32,35.2,35.2,0,0,1-12.9,8.07,47,47,0,0,1-16.08,2.7,45.83,45.83,0,0,1-15.79-2.7,36.37,36.37,0,0,1-13-8.07,37.83,37.83,0,0,1-8.71-13.32,49.17,49.17,0,0,1-3.19-18.43,47.83,47.83,0,0,1,3.3-18.44,39.3,39.3,0,0,1,8.9-13.37,36.66,36.66,0,0,1,13-8.13,44.37,44.37,0,0,1,15.49-2.71,45.54,45.54,0,0,1,15.78,2.71,36,36,0,0,1,13,8.13,38.34,38.34,0,0,1,8.72,13.37A49.43,49.43,0,0,1,261.52,406.3Zm-62.32,0a37.09,37.09,0,0,0,1.47,10.83,25,25,0,0,0,4.24,8.31,18.73,18.73,0,0,0,6.78,5.36,23.14,23.14,0,0,0,18.32,0,18.56,18.56,0,0,0,6.83-5.36,24.61,24.61,0,0,0,4.24-8.31,37.09,37.09,0,0,0,1.47-10.83,37.77,37.77,0,0,0-1.47-10.9,24.63,24.63,0,0,0-4.24-8.37,18.77,18.77,0,0,0-6.83-5.36,21.57,21.57,0,0,0-9.13-1.88,20.87,20.87,0,0,0-9.19,1.94,19.55,19.55,0,0,0-6.78,5.42,25,25,0,0,0-4.24,8.37A37.32,37.32,0,0,0,199.2,406.3Z"/><polygon class="cls-2" points="273.36 450.73 298.84 450.73 298.84 417.03 331.12 417.03 331.12 394.5 298.84 394.5 298.84 384.52 335.12 384.52 335.12 361.98 273.36 361.98 273.36 450.73"/><polygon class="cls-2" points="366.46 415.62 399.09 415.62 399.09 393.44 366.46 393.44 366.46 384.52 403.21 384.52 403.21 361.98 340.98 361.98 340.98 450.73 405.93 450.73 405.93 428.19 366.46 428.19 366.46 415.62"/><path class="cls-2" d="M485.93,445.65c-1.44-3-3-6.15-4.67-9.27s-3.44-6.23-5.24-9.15-3.61-5.71-5.45-8.4q-1.35-1.95-2.65-3.71a27.58,27.58,0,0,0,8.76-7.6c3.08-4.18,4.64-9.59,4.64-16.07,0-10.4-3.82-18.23-11.35-23.27-7.09-4.74-17.22-7.14-30.13-7.14-3.43,0-7.38.16-11.75.48a109.61,109.61,0,0,0-12.85,1.71l-2.87.56v86.94h25.48V420.92h3.83c1.16,1.46,2.33,3.05,3.48,4.75,1.57,2.29,3.15,4.73,4.72,7.24s3.14,5.18,4.64,7.87l4.56,8.13,1,1.82h28.23Zm-30.68-54.32c0,2.91-.83,4.69-2.7,5.77-1.67,1-5.29,2.11-13.07,2.11h-1.63V383.9c.9-.06,1.93-.09,3-.09,5.24,0,9.16.7,11.63,2.08C454.41,386.94,455.25,388.62,455.25,391.33Z"/><path class="cls-2" d="M361.79,171.79c-.4-.34-.61-.56-.85-.72l-30.3-19.42L261.76,300.46l-67.9-148.81c-10.86,7.07-21.18,14.3-32,21.41l22.79,5.72-17,16.93C190.1,229.36,239.14,302,261.75,336c22.63-33.94,72-108,94.68-142l-16.79-16.63Z"/><path class="cls-3" d="M302,161.66c0,1.24,0,2.48,0,3.73V166q0,6.16,0,12.34a10.75,10.75,0,0,1-8.6,10.85,11,11,0,0,1-2.26.23,10,10,0,0,1-4.9-1.27q-6.94-3.88-13.87-7.79L268.29,178l-.32-.2a11.37,11.37,0,0,1-12.31,0,7.32,7.32,0,0,1-.62.39L250,181q-6.18,3.48-12.37,6.94a11,11,0,0,1-9.5.61,10.59,10.59,0,0,1-6.16-6.95,11.4,11.4,0,0,1-.41-3.13c0-6.65,0-12.09,0-17.15a145.1,145.1,0,0,1-22.51-9.66l62.28,133.69,63.18-133.69S316.19,157.07,302,161.66Z"/><path class="cls-2" d="M253.51,161.8c-2.79,4.23-2.76,8.38,0,12.57a4.1,4.1,0,0,1-.46.31c-5.78,3.26-11.56,6.53-17.36,9.76a6.71,6.71,0,0,1-9.88-3.94,7.89,7.89,0,0,1-.26-2.05q0-10.35,0-20.7a6.65,6.65,0,0,1,7.63-6.84,6.25,6.25,0,0,1,2.27.74c6,3.3,11.86,6.64,17.79,10Z"/><path class="cls-2" d="M270.12,174.39c2.84-4.81,2.85-7.34,0-12.66l5.55-3.12c4.13-2.33,8.25-4.69,12.41-7a6.68,6.68,0,0,1,9.64,4,8.06,8.06,0,0,1,.26,2.19c0,6.81,0,13.63,0,20.44a6.8,6.8,0,0,1-5.4,6.91,6.31,6.31,0,0,1-4.43-.62q-9-5-18-10.09S270.19,174.46,270.12,174.39Z"/><path class="cls-2" d="M269.36,168.08a7.54,7.54,0,1,1-7.48-7.54A7.55,7.55,0,0,1,269.36,168.08Z"/><circle class="cls-2" cx="261.8" cy="190.07" r="4.61"/><circle class="cls-2" cx="261.8" cy="213.58" r="4.61"/><circle class="cls-2" cx="261.8" cy="237.09" r="4.61"/><circle class="cls-2" cx="261.8" cy="260.6" r="4.61"/></svg>