<svg id="Capa_5" data-name="Capa 5" xmlns="http://www.w3.org/2000/svg" viewBox="0 0 72 72"><defs><style>.cls-1{fill:#1d1d1b;}.cls-2{fill:#6d6d6d;}.cls-3{fill:#fff;}</style></defs><path d="M36.86,49.82,49.74,30.7A15.3,15.3,0,0,0,46.3,9.9a15.53,15.53,0,0,0-9.44-3h-.73A15.34,15.34,0,0,0,24,30.85Z"/><path class="cls-1" d="M5.34,62.5a3.77,3.77,0,0,0,1-.1,1.81,1.81,0,0,0,.61-.26.91.91,0,0,0,.31-.4,1.36,1.36,0,0,0,.09-.51,1.2,1.2,0,0,0-.56-1,8.71,8.71,0,0,0-1.94-.85,12.11,12.11,0,0,1-1.2-.49,4.33,4.33,0,0,1-1.07-.68,3.26,3.26,0,0,1-.78-1,3.12,3.12,0,0,1-.3-1.43,3.61,3.61,0,0,1,.32-1.53,3.25,3.25,0,0,1,.9-1.15,3.92,3.92,0,0,1,1.41-.73A6.28,6.28,0,0,1,6,52.1a7.48,7.48,0,0,1,2.14.27A7.61,7.61,0,0,1,9.57,53l-.8,2.17a6.84,6.84,0,0,0-1.13-.47,4.8,4.8,0,0,0-1.51-.2,2.8,2.8,0,0,0-1.42.27.91.91,0,0,0-.43.84.93.93,0,0,0,.16.56,1.39,1.39,0,0,0,.45.41,3.22,3.22,0,0,0,.67.34l.83.31a16.45,16.45,0,0,1,1.66.69,4.54,4.54,0,0,1,1.17.8,3,3,0,0,1,.7,1.08,4.38,4.38,0,0,1,.23,1.5A3.18,3.18,0,0,1,9,63.9a5.77,5.77,0,0,1-3.61.94,10.94,10.94,0,0,1-1.47-.09,11.46,11.46,0,0,1-1.15-.24c-.33-.1-.62-.2-.86-.3s-.45-.21-.61-.3L2,61.72a7.28,7.28,0,0,0,1.35.54A7,7,0,0,0,5.34,62.5Z"/><path class="cls-1" d="M19.63,52.38h2.75V64.6H19.63V59.41H15V64.6H12.26V52.38H15v4.67h4.62Z"/><path class="cls-1" d="M36.83,58.48a7.52,7.52,0,0,1-.47,2.76,5.64,5.64,0,0,1-1.28,2,5.27,5.27,0,0,1-1.93,1.21,7,7,0,0,1-2.4.4,6.8,6.8,0,0,1-2.36-.4,5.49,5.49,0,0,1-1.94-1.21,5.57,5.57,0,0,1-1.31-2,7.52,7.52,0,0,1-.47-2.76,7.19,7.19,0,0,1,.49-2.76,5.89,5.89,0,0,1,1.33-2,5.52,5.52,0,0,1,1.94-1.21,6.66,6.66,0,0,1,2.32-.41,6.85,6.85,0,0,1,2.36.41,5.43,5.43,0,0,1,1.94,1.21,5.82,5.82,0,0,1,1.3,2A7.39,7.39,0,0,1,36.83,58.48Zm-9.33,0a5.77,5.77,0,0,0,.22,1.62,3.64,3.64,0,0,0,.64,1.24,2.75,2.75,0,0,0,1,.81,3.49,3.49,0,0,0,2.74,0,2.7,2.7,0,0,0,1-.81,3.64,3.64,0,0,0,.64-1.24A5.43,5.43,0,0,0,34,58.48a5.54,5.54,0,0,0-.22-1.63,3.69,3.69,0,0,0-.64-1.25,2.68,2.68,0,0,0-1-.8,3.15,3.15,0,0,0-1.36-.28,3,3,0,0,0-1.38.29,2.75,2.75,0,0,0-1,.81,3.6,3.6,0,0,0-.64,1.25A5.8,5.8,0,0,0,27.5,58.48Z"/><polygon class="cls-2" points="38.6 65.13 42.41 65.13 42.41 60.09 47.24 60.09 47.24 56.72 42.41 56.72 42.41 55.22 47.84 55.22 47.84 51.85 38.6 51.85 38.6 65.13"/><polygon class="cls-2" points="52.52 59.88 57.4 59.88 57.4 56.56 52.52 56.56 52.52 55.22 58.02 55.22 58.02 51.85 48.71 51.85 48.71 65.13 58.42 65.13 58.42 61.76 52.52 61.76 52.52 59.88"/><path class="cls-2" d="M70.39,64.37c-.21-.46-.45-.92-.7-1.39s-.51-.93-.78-1.37-.54-.85-.82-1.25c-.13-.2-.26-.38-.39-.56A4.17,4.17,0,0,0,69,58.66a3.94,3.94,0,0,0,.69-2.4A3.9,3.9,0,0,0,68,52.78a8.07,8.07,0,0,0-4.5-1.07c-.51,0-1.11,0-1.76.07a16.76,16.76,0,0,0-1.92.26l-.43.08v13H63.2V60.67h.57a8.15,8.15,0,0,1,.52.71c.24.34.48.71.71,1.08s.47.78.69,1.18l.69,1.22.15.27h4.22ZM65.8,56.24a.87.87,0,0,1-.4.86,4,4,0,0,1-2,.32H63.2V55.13h.46a3.7,3.7,0,0,1,1.74.31A.82.82,0,0,1,65.8,56.24Z"/><path class="cls-2" d="M51.82,23.4l-.12-.1-4.54-2.91L36.86,42.65,26.71,20.39c-1.63,1.06-3.17,2.14-4.79,3.2l3.41.86L22.79,27c3.35,5,10.69,15.91,14.07,21L51,26.72l-2.51-2.48Z"/><path class="cls-3" d="M42.88,21.89v2.49A1.6,1.6,0,0,1,41.6,26a2.09,2.09,0,0,1-.34,0,1.43,1.43,0,0,1-.73-.2c-.7-.38-1.39-.77-2.08-1.16l-.61-.35-.05,0a1.73,1.73,0,0,1-.92.26A1.68,1.68,0,0,1,36,24.3l-.09.06-.75.42-1.85,1a1.65,1.65,0,0,1-1.42.09,1.61,1.61,0,0,1-.93-1,1.73,1.73,0,0,1-.06-.47V21.84a21.31,21.31,0,0,1-3.36-1.45l9.31,20,9.45-20A15.66,15.66,0,0,1,42.88,21.89Z"/><path class="cls-2" d="M35.63,21.91a1.56,1.56,0,0,0,0,1.88l-.07.05L33,25.3a1,1,0,0,1-1.48-.59,1.1,1.1,0,0,1,0-.31V21.3a1,1,0,0,1,1.14-1,.8.8,0,0,1,.34.11l2.66,1.49Z"/><path class="cls-2" d="M38.11,23.79a1.56,1.56,0,0,0,0-1.89l.83-.47,1.85-1a1,1,0,0,1,1.44.61,1.17,1.17,0,0,1,0,.32c0,1,0,2,0,3.06a1,1,0,0,1-.81,1,.94.94,0,0,1-.66-.1l-2.69-1.51Z"/><path class="cls-2" d="M38,22.85A1.14,1.14,0,0,1,36.87,24a1.16,1.16,0,0,1-1.13-1.14,1.13,1.13,0,0,1,2.26,0Z"/><circle class="cls-2" cx="36.87" cy="26.14" r="0.69"/><circle class="cls-2" cx="36.87" cy="29.65" r="0.69"/><circle class="cls-2" cx="36.87" cy="33.17" r="0.69"/><circle class="cls-2" cx="36.87" cy="36.69" r="0.69"/></svg>