<svg id="Capa_1" data-name="Capa 1" xmlns="http://www.w3.org/2000/svg" viewBox="0 0 150 150"><defs><style>.cls-1{fill:#6d6d6d;}.cls-2{fill:#fff;}</style></defs><path d="M75.12,145.92l42.55-63.16c15-22.28,10.15-52.58-11.37-68.67-7.86-5.88-18-9.91-31.18-10-.81,0-1.61,0-2.4,0C32.8,5.27,10,50.26,32.5,83.28Z"/><path class="cls-1" d="M124.54,58.67c-.2-.16-.3-.27-.42-.35l-15-9.59-34,73.51L41.58,48.73c-5.36,3.49-10.46,7.06-15.79,10.57l11.26,2.83-8.41,8.36C39.72,87.11,64,123,75.12,139.77,86.3,123,110.7,86.43,121.89,69.64l-8.29-8.22Z"/><path class="cls-2" d="M95,53.67c0,.62,0,1.23,0,1.84v.29c0,2,0,4.06,0,6.09a5.31,5.31,0,0,1-4.25,5.36,5.4,5.4,0,0,1-1.12.12,4.88,4.88,0,0,1-2.42-.63l-6.85-3.85-2-1.14-.16-.1a5.56,5.56,0,0,1-3,.89,5.71,5.71,0,0,1-3.06-.91l-.3.19-2.48,1.4q-3,1.73-6.11,3.43a5.44,5.44,0,0,1-4.7.3,5.24,5.24,0,0,1-3-3.43,5.82,5.82,0,0,1-.2-1.55c0-3.28,0-6,0-8.47a71.87,71.87,0,0,1-11.11-4.77l30.76,66,31.21-66A51.4,51.4,0,0,1,95,53.67Z"/><path class="cls-1" d="M71.05,53.74a5.16,5.16,0,0,0,0,6.21c-.08,0-.15.11-.23.15l-8.58,4.83a3.32,3.32,0,0,1-4.88-2,4.37,4.37,0,0,1-.13-1c0-3.41,0-6.82,0-10.23A3.29,3.29,0,0,1,61,48.36a3.08,3.08,0,0,1,1.12.37C65.08,50.36,68,52,70.93,53.66Z"/><path class="cls-1" d="M79.26,60c1.4-2.37,1.4-3.62,0-6.25L82,52.17c2-1.15,4.07-2.32,6.13-3.44a3.29,3.29,0,0,1,4.76,2A3.9,3.9,0,0,1,93,51.81c0,3.37,0,6.73,0,10.1a3.35,3.35,0,0,1-2.66,3.41,3.14,3.14,0,0,1-2.19-.3l-8.87-5S79.29,60,79.26,60Z"/><path class="cls-1" d="M78.88,56.84a3.73,3.73,0,0,1-3.72,3.72,3.72,3.72,0,1,1,0-7.44A3.7,3.7,0,0,1,78.88,56.84Z"/><circle class="cls-1" cx="75.14" cy="67.71" r="2.28"/><circle class="cls-1" cx="75.14" cy="79.32" r="2.28"/><circle class="cls-1" cx="75.14" cy="90.93" r="2.28"/><circle class="cls-1" cx="75.14" cy="102.55" r="2.28"/></svg>