<?xml version="1.0" standalone="no"?>
<!DOCTYPE svg PUBLIC "-//W3C//DTD SVG 20010904//EN"
 "http://www.w3.org/TR/2001/REC-SVG-20010904/DTD/svg10.dtd">
<svg version="1.0" xmlns="http://www.w3.org/2000/svg"
 width="1024.000000pt" height="913.000000pt" viewBox="0 0 1024.000000 913.000000"
 preserveAspectRatio="xMidYMid meet">
<metadata>
Created by potrace 1.16, written by Peter Selinger 2001-2019
</metadata>
<g transform="translate(0.000000,913.000000) scale(0.100000,-0.100000)"
fill="#000000" stroke="none">
<path d="M5020 8219 c-337 -28 -686 -166 -950 -377 -94 -74 -238 -223 -314
-322 -371 -486 -480 -1118 -291 -1685 70 -210 137 -330 370 -670 79 -115 195
-286 259 -380 63 -93 183 -269 265 -390 153 -225 391 -576 614 -905 195 -287
211 -310 233 -338 l21 -26 187 280 c103 153 265 394 359 534 95 140 363 539
597 885 458 679 535 809 604 1023 74 229 106 485 87 694 -23 269 -79 468 -191
693 -86 173 -174 297 -309 437 -319 332 -713 512 -1196 548 -156 11 -194 11
-345 -1z m-819 -1640 c46 -23 134 -61 194 -85 l110 -43 5 -183 c6 -208 12
-229 88 -283 35 -24 53 -29 100 -30 54 0 66 5 236 101 178 100 180 101 213 88
42 -18 114 -18 156 0 33 13 35 12 212 -88 170 -95 183 -101 236 -101 68 1 124
33 160 91 22 36 23 51 27 219 l4 182 92 32 c50 18 137 57 194 86 56 28 102 48
102 44 0 -7 -280 -606 -510 -1089 -48 -102 -161 -340 -250 -530 -317 -674
-345 -731 -355 -729 -5 2 -81 156 -168 343 -88 188 -217 467 -289 621 -72 154
-172 370 -223 480 -51 110 -112 241 -135 290 -205 437 -290 625 -286 625 2 0
41 -19 87 -41z m-166 -6 c10 -21 38 -83 62 -138 24 -55 57 -127 73 -160 38
-76 349 -760 365 -800 11 -28 28 -66 103 -225 16 -36 50 -110 75 -165 25 -55
63 -139 86 -188 22 -48 41 -89 41 -91 0 -2 24 -55 53 -117 30 -63 114 -248
188 -411 74 -164 138 -298 142 -298 5 0 22 30 39 68 17 37 48 105 70 152 22
47 51 108 63 135 12 28 38 84 57 125 19 41 47 102 62 135 15 33 52 111 82 172
30 62 54 115 54 118 0 3 25 57 55 121 30 64 55 118 55 120 0 1 29 64 65 139
36 75 65 139 65 141 0 2 29 65 65 140 36 75 65 139 65 141 0 3 21 48 46 100
25 52 61 129 79 172 18 42 59 130 90 196 69 144 94 199 133 285 40 89 75 164
78 169 4 5 136 -78 454 -287 l85 -56 -50 -13 c-27 -8 -84 -22 -125 -33 -171
-44 -200 -53 -200 -60 0 -3 63 -69 140 -146 85 -84 139 -145 137 -154 -3 -12
-736 -1118 -1160 -1750 -39 -58 -102 -152 -140 -210 -39 -58 -74 -106 -79
-108 -4 -2 -8 -8 -8 -13 0 -8 -186 -292 -251 -382 l-27 -38 -80 119 c-88 130
-517 770 -618 922 -35 52 -70 104 -78 115 -14 20 -378 563 -509 760 -36 55
-78 116 -91 135 -14 19 -84 123 -155 230 l-130 195 151 151 c82 83 146 154
142 157 -5 2 -84 23 -175 46 -91 22 -176 44 -188 49 -20 7 13 32 246 189 147
100 271 182 274 182 3 1 14 -16 24 -36z"/>
<path d="M8205 2894 c-126 -12 -235 -27 -267 -35 l-38 -10 0 -769 0 -770 225
0 225 0 0 265 0 265 33 0 c37 0 39 -2 124 -130 58 -87 120 -189 188 -312 l49
-88 248 0 248 0 -10 25 c-38 100 -177 351 -281 509 -59 88 -67 106 -49 106 25
0 142 126 170 184 93 188 50 463 -93 592 -67 61 -188 118 -302 144 -88 20
-365 34 -470 24z m357 -415 c21 -5 49 -20 63 -32 54 -46 39 -159 -25 -192 -35
-18 -209 -41 -234 -32 -13 5 -16 27 -16 135 0 71 3 132 8 136 9 10 152 -1 204
-15z"/>
<path d="M5430 2095 l0 -785 225 0 225 0 2 298 3 297 283 3 282 2 0 199 0 198
-22 0 c-13 0 -141 0 -285 1 l-263 2 0 85 c0 74 2 85 18 85 9 0 141 0 292 0
151 0 290 2 308 6 l32 7 0 193 0 194 -550 0 -550 0 0 -785z"/>
<path d="M6630 2095 l0 -785 575 0 575 0 0 200 0 200 -350 0 -350 0 0 110 0
110 290 0 290 0 0 198 0 197 -267 -3 c-148 -1 -278 0 -290 3 -21 5 -23 11 -23
80 0 65 2 75 18 75 9 0 154 1 322 3 l305 2 3 198 2 197 -550 0 -550 0 0 -785z"/>
<path d="M1460 2850 c-246 -29 -398 -157 -432 -363 -22 -131 17 -253 107 -342
62 -61 132 -99 296 -160 177 -66 238 -101 267 -156 39 -73 17 -140 -61 -181
-38 -21 -55 -23 -172 -22 -139 0 -208 13 -313 60 -30 13 -59 21 -63 17 -14
-15 -91 -242 -85 -252 11 -17 150 -69 236 -88 63 -13 125 -18 245 -18 174 1
253 14 349 60 162 77 242 242 216 442 -26 187 -121 282 -384 383 -261 100
-306 132 -306 215 0 90 66 127 226 126 102 0 148 -9 242 -48 34 -14 64 -24 65
-22 7 9 87 237 87 247 0 29 -178 86 -313 101 -105 12 -111 12 -207 1z"/>
<path d="M4403 2850 c-276 -38 -470 -184 -569 -428 -74 -184 -73 -486 3 -665
97 -226 277 -363 538 -408 80 -14 241 -6 325 15 259 65 429 238 496 506 26
104 26 354 0 455 -72 273 -257 457 -515 509 -93 19 -205 26 -278 16z m187
-295 c177 -42 276 -189 288 -428 13 -291 -122 -480 -355 -495 -194 -12 -342
106 -393 313 -16 69 -14 247 5 319 42 160 138 262 275 292 74 17 104 16 180
-1z"/>
<path d="M2310 2095 l0 -725 160 0 160 0 2 308 3 307 270 0 270 0 3 -308 2
-307 163 2 162 3 0 720 0 720 -162 3 -163 2 0 -275 0 -275 -275 0 -275 0 0
275 0 275 -160 0 -160 0 0 -725z"/>
</g>
</svg>
