<svg id="Capa_4" data-name="Capa 4" xmlns="http://www.w3.org/2000/svg" viewBox="0 0 152 152"><defs><style>.cls-1{fill:#6d6d6d;}.cls-2{fill:#b61917;}.cls-3{fill:#fff;}</style></defs><path d="M77.8,104.91l27-40a32,32,0,0,0-7.2-43.51A32.49,32.49,0,0,0,77.8,15.06l-1.52,0C51,15.81,36.57,44.32,50.8,65.23Z"/><path class="cls-1" d="M11.85,131.44a8.6,8.6,0,0,0,2-.2,3.65,3.65,0,0,0,1.27-.56,1.8,1.8,0,0,0,.66-.83,2.8,2.8,0,0,0,.19-1.07,2.48,2.48,0,0,0-1.18-2.08,17.07,17.07,0,0,0-4.06-1.79c-.83-.29-1.67-.63-2.51-1A9.13,9.13,0,0,1,6,122.46a6.9,6.9,0,0,1-1.63-2.1,6.66,6.66,0,0,1-.62-3,7.46,7.46,0,0,1,.66-3.19,6.83,6.83,0,0,1,1.88-2.42,8.68,8.68,0,0,1,3-1.53,13.5,13.5,0,0,1,3.91-.53,15.56,15.56,0,0,1,7.56,1.77L19,116a16.85,16.85,0,0,0-2.38-1,10.36,10.36,0,0,0-3.15-.42,5.79,5.79,0,0,0-3,.57,1.93,1.93,0,0,0-.9,1.75,2,2,0,0,0,.33,1.18,3.18,3.18,0,0,0,.94.87,7.94,7.94,0,0,0,1.4.7c.53.21,1.11.42,1.75.65,1.33.49,2.48,1,3.47,1.45A9.27,9.27,0,0,1,20,123.44a6.1,6.1,0,0,1,1.45,2.25,9,9,0,0,1,.48,3.13,6.64,6.64,0,0,1-2.5,5.55q-2.52,2-7.56,2a21.73,21.73,0,0,1-3.06-.2,20.05,20.05,0,0,1-2.42-.5,12.87,12.87,0,0,1-1.8-.62c-.51-.23-.93-.43-1.28-.63l1.63-4.57a14.14,14.14,0,0,0,2.82,1.12A14.7,14.7,0,0,0,11.85,131.44Z"/><path class="cls-1" d="M41.75,110.28H47.5v25.55H41.75V125H32.09v10.84H26.34V110.28h5.75v9.77h9.66Z"/><path class="cls-1" d="M77.73,123a15.74,15.74,0,0,1-1,5.77A11.87,11.87,0,0,1,74.08,133a10.88,10.88,0,0,1-4,2.52,14.56,14.56,0,0,1-5,.85,14.17,14.17,0,0,1-4.94-.85A11.3,11.3,0,0,1,56,133a11.84,11.84,0,0,1-2.72-4.17,15.33,15.33,0,0,1-1-5.77,15,15,0,0,1,1-5.77,12.26,12.26,0,0,1,2.79-4.18,11.25,11.25,0,0,1,4-2.54,13.83,13.83,0,0,1,4.85-.85,14.21,14.21,0,0,1,4.94.85,11.08,11.08,0,0,1,4,2.54,11.85,11.85,0,0,1,2.73,4.18A15.36,15.36,0,0,1,77.73,123Zm-19.5,0a11.56,11.56,0,0,0,.46,3.4A7.72,7.72,0,0,0,60,129a5.86,5.86,0,0,0,2.12,1.68,7.28,7.28,0,0,0,5.74,0A5.73,5.73,0,0,0,70,129a7.74,7.74,0,0,0,1.33-2.59,11.56,11.56,0,0,0,.46-3.4,11.72,11.72,0,0,0-.46-3.41A7.65,7.65,0,0,0,70,117a5.73,5.73,0,0,0-2.13-1.68,6.77,6.77,0,0,0-2.86-.59,6.48,6.48,0,0,0-2.88.61A6.11,6.11,0,0,0,60,117a7.78,7.78,0,0,0-1.32,2.62A11.54,11.54,0,0,0,58.23,123Z"/><polygon class="cls-2" points="81.43 136.94 89.41 136.94 89.41 126.39 99.51 126.39 99.51 119.34 89.41 119.34 89.41 116.22 100.76 116.22 100.76 109.17 81.43 109.17 81.43 136.94"/><polygon class="cls-2" points="110.57 125.95 120.78 125.95 120.78 119.01 110.57 119.01 110.57 116.22 122.07 116.22 122.07 109.17 102.59 109.17 102.59 136.94 122.92 136.94 122.92 129.89 110.57 129.89 110.57 125.95"/><path class="cls-2" d="M148,135.35c-.45-.95-.94-1.92-1.46-2.9s-1.07-1.95-1.64-2.87-1.13-1.78-1.7-2.62c-.28-.41-.56-.8-.83-1.17a8.47,8.47,0,0,0,2.74-2.37,8.32,8.32,0,0,0,1.45-5c0-3.26-1.19-5.71-3.55-7.28s-5.39-2.24-9.43-2.24c-1.07,0-2.31,0-3.68.15a32.43,32.43,0,0,0-4,.54l-.9.17v27.21h8v-9.33h1.2c.36.46.72,1,1.09,1.49.49.71,1,1.48,1.47,2.26s1,1.62,1.45,2.46l1.43,2.55.32.57h8.84Zm-9.6-17a1.83,1.83,0,0,1-.84,1.8c-.52.31-1.66.67-4.09.67h-.51V116l1,0a7.82,7.82,0,0,1,3.64.65A1.72,1.72,0,0,1,138.35,118.35Z"/><path class="cls-1" d="M109.1,49.65a3.31,3.31,0,0,0-.26-.23l-9.48-6.08L77.8,89.91,56.55,43.34c-3.39,2.22-6.62,4.48-10,6.7l7.13,1.79-5.32,5.3c7,10.53,22.36,33.28,29.44,43.89l29.63-44.43-5.26-5.2Z"/><path class="cls-3" d="M90.4,46.48v1.34c0,1.29,0,2.58,0,3.86A3.38,3.38,0,0,1,87,55.15a3.08,3.08,0,0,1-1.54-.4c-1.45-.8-2.89-1.62-4.34-2.43l-1.28-.73-.1-.06a3.53,3.53,0,0,1-1.92.56,3.6,3.6,0,0,1-1.94-.57l-.19.12-1.57.89L70.26,54.7a3.45,3.45,0,0,1-3,.19,3.29,3.29,0,0,1-1.93-2.17,3.83,3.83,0,0,1-.13-1c0-2.08,0-3.78,0-5.36a45.14,45.14,0,0,1-7-3L77.67,85.18,97.44,43.34A32.39,32.39,0,0,1,90.4,46.48Z"/><path class="cls-2" d="M75.22,46.52a3.3,3.3,0,0,0,0,3.94l-.14.09-5.44,3.06a2.1,2.1,0,0,1-3.09-1.24,2.25,2.25,0,0,1-.08-.64c0-2.16,0-4.32,0-6.48a2.08,2.08,0,0,1,2.39-2.14,2,2,0,0,1,.71.23l5.57,3.13Z"/><path class="cls-2" d="M80.42,50.46c.89-1.5.89-2.29,0-4l1.73-1,3.89-2.18a2.09,2.09,0,0,1,3,1.27,2.3,2.3,0,0,1,.09.69c0,2.13,0,4.26,0,6.39a2.13,2.13,0,0,1-1.68,2.17,2,2,0,0,1-1.39-.2L80.46,50.5Z"/><path class="cls-2" d="M80.18,48.49a2.36,2.36,0,1,1-2.34-2.36A2.36,2.36,0,0,1,80.18,48.49Z"/><circle class="cls-1" cx="77.82" cy="55.37" r="1.44"/><circle class="cls-1" cx="77.82" cy="62.72" r="1.44"/><circle class="cls-1" cx="77.82" cy="70.08" r="1.44"/><circle class="cls-1" cx="77.82" cy="77.44" r="1.44"/></svg>