<svg id="Capa_4" data-name="Capa 4" xmlns="http://www.w3.org/2000/svg" viewBox="0 0 144 144"><defs><style>.cls-1{fill:#6d6d6d;}.cls-2{fill:#b61917;}.cls-3{fill:#fff;}</style></defs><path d="M73.67,98.77l25-37A29.64,29.64,0,0,0,92,21.46a30.08,30.08,0,0,0-18.28-5.87c-.48,0-1,0-1.41,0C48.85,16.28,35.5,42.67,48.67,62Z"/><path class="cls-1" d="M12.61,123.32a7.44,7.44,0,0,0,1.86-.19,3.31,3.31,0,0,0,1.18-.51,1.61,1.61,0,0,0,.61-.77,2.57,2.57,0,0,0,.18-1,2.28,2.28,0,0,0-1.1-1.92,15.09,15.09,0,0,0-3.75-1.66c-.77-.27-1.55-.59-2.32-.94A8.12,8.12,0,0,1,7.19,115a5.95,5.95,0,0,1-2.09-4.73,6.89,6.89,0,0,1,.62-3,6.31,6.31,0,0,1,1.74-2.23,7.86,7.86,0,0,1,2.73-1.42,12.29,12.29,0,0,1,3.62-.49,14.8,14.8,0,0,1,4.13.51,14.58,14.58,0,0,1,2.86,1.12L19.27,109a14.83,14.83,0,0,0-2.2-.9,9.58,9.58,0,0,0-2.92-.4,5.38,5.38,0,0,0-2.75.53,1.79,1.79,0,0,0-.83,1.62,1.92,1.92,0,0,0,.3,1.1,3.23,3.23,0,0,0,.87.8,8.29,8.29,0,0,0,1.3.65c.49.19,1,.39,1.62.59q1.85.69,3.21,1.35a8.71,8.71,0,0,1,2.27,1.55A5.79,5.79,0,0,1,21.49,118a8.47,8.47,0,0,1,.44,2.9A6.14,6.14,0,0,1,19.61,126q-2.33,1.83-7,1.83a18.72,18.72,0,0,1-2.83-.19,17.38,17.38,0,0,1-2.23-.46,12.05,12.05,0,0,1-1.68-.58,11.6,11.6,0,0,1-1.17-.58l1.5-4.23a13.11,13.11,0,0,0,2.61,1A13.38,13.38,0,0,0,12.61,123.32Z"/><path class="cls-1" d="M40.29,103.73h5.32v23.65H40.29v-10H31.35v10H26V103.73h5.33v9h8.94Z"/><path class="cls-1" d="M73.6,115.54a14.61,14.61,0,0,1-.9,5.34,11.07,11.07,0,0,1-2.48,3.86,10.32,10.32,0,0,1-3.74,2.34,13.59,13.59,0,0,1-4.65.78,13.35,13.35,0,0,1-4.58-.78,10.71,10.71,0,0,1-3.75-2.34A11,11,0,0,1,51,120.88a14.39,14.39,0,0,1-.92-5.34,13.76,13.76,0,0,1,1-5.34,11.16,11.16,0,0,1,2.57-3.87A10.55,10.55,0,0,1,57.34,104a13,13,0,0,1,4.49-.78,13.3,13.3,0,0,1,4.57.78,10.34,10.34,0,0,1,3.75,2.36,11.07,11.07,0,0,1,2.53,3.87A14.35,14.35,0,0,1,73.6,115.54Zm-18,0a10.9,10.9,0,0,0,.42,3.14,7.51,7.51,0,0,0,1.23,2.41,5.58,5.58,0,0,0,2,1.55,6.8,6.8,0,0,0,5.31,0,5.47,5.47,0,0,0,2-1.55,7.51,7.51,0,0,0,1.23-2.41,10.89,10.89,0,0,0,.43-3.14,11.13,11.13,0,0,0-.43-3.16A7.36,7.36,0,0,0,66.45,110a5.37,5.37,0,0,0-2-1.55,6.63,6.63,0,0,0-5.31,0,5.75,5.75,0,0,0-2,1.57A7.41,7.41,0,0,0,56,112.42,10.9,10.9,0,0,0,55.55,115.54Z"/><polygon class="cls-2" points="77.03 128.41 84.41 128.41 84.41 118.65 93.76 118.65 93.76 112.12 84.41 112.12 84.41 109.23 94.92 109.23 94.92 102.7 77.03 102.7 77.03 128.41"/><polygon class="cls-2" points="104 118.24 113.45 118.24 113.45 111.81 104 111.81 104 109.23 114.65 109.23 114.65 102.7 96.62 102.7 96.62 128.41 115.43 128.41 115.43 121.88 104 121.88 104 118.24"/><path class="cls-2" d="M138.61,126.94c-.42-.88-.87-1.78-1.35-2.69s-1-1.8-1.52-2.65-1.05-1.65-1.58-2.43c-.26-.38-.52-.74-.77-1.07a8.07,8.07,0,0,0,2.54-2.21,7.67,7.67,0,0,0,1.34-4.65A7.57,7.57,0,0,0,134,104.5c-2-1.37-5-2.07-8.72-2.07-1,0-2.14,0-3.41.14a31.75,31.75,0,0,0-3.72.49l-.83.17v25.18h7.38v-8.63h1.11c.34.42.67.88,1,1.37.45.67.91,1.37,1.36,2.1s.91,1.5,1.35,2.28.89,1.58,1.32,2.36l.3.52h8.17Zm-8.89-15.73a1.69,1.69,0,0,1-.78,1.66,7.88,7.88,0,0,1-3.79.62h-.47v-4.44c.26,0,.56,0,.88,0a7.21,7.21,0,0,1,3.37.6A1.59,1.59,0,0,1,129.72,111.21Z"/><path class="cls-1" d="M102.65,47.6c-.12-.09-.18-.16-.25-.2l-8.78-5.63-20,43.11L54,41.77c-3.15,2-6.14,4.14-9.26,6.2l6.6,1.66c-1.71,1.7-3.31,3.3-4.93,4.9,6.5,9.75,20.71,30.81,27.26,40.63L101.09,54l-4.86-4.82Z"/><path class="cls-3" d="M85.33,44.67v1.25c0,1.19,0,2.38,0,3.57a3.11,3.11,0,0,1-2.49,3.14,2.94,2.94,0,0,1-.65.07,2.84,2.84,0,0,1-1.42-.37l-4-2.25-1.19-.67-.09-.06a3.28,3.28,0,0,1-1.78.52,3.34,3.34,0,0,1-1.79-.53,1.42,1.42,0,0,1-.18.11l-1.45.82-3.58,2a3.19,3.19,0,0,1-2.76.18,3.07,3.07,0,0,1-1.78-2,3.16,3.16,0,0,1-.12-.9v-5a41.83,41.83,0,0,1-6.52-2.8l18,38.73,18.3-38.73A29.82,29.82,0,0,1,85.33,44.67Z"/><path class="cls-2" d="M71.28,44.71a3,3,0,0,0,0,3.64l-.13.09-5,2.83a1.94,1.94,0,0,1-2.86-1.14,2.4,2.4,0,0,1-.07-.6c0-2,0-4,0-6a1.92,1.92,0,0,1,2.21-2,1.76,1.76,0,0,1,.66.21l5.15,2.89Z"/><path class="cls-2" d="M76.09,48.36c.82-1.39.83-2.13,0-3.67l1.61-.9c1.19-.68,2.39-1.36,3.59-2a1.93,1.93,0,0,1,2.79,1.17,2.34,2.34,0,0,1,.08.64c0,2,0,4,0,5.92a2,2,0,0,1-1.57,2,1.84,1.84,0,0,1-1.28-.18l-5.2-2.92Z"/><path class="cls-2" d="M75.87,46.53a2.19,2.19,0,0,1-2.18,2.18,2.18,2.18,0,1,1,0-4.36A2.17,2.17,0,0,1,75.87,46.53Z"/><circle class="cls-1" cx="73.68" cy="52.9" r="1.33"/><circle class="cls-1" cx="73.68" cy="59.71" r="1.33"/><circle class="cls-1" cx="73.68" cy="66.52" r="1.33"/><circle class="cls-1" cx="73.68" cy="73.33" r="1.33"/></svg>